<svg width="72" height="58" viewBox="0 0 72 58" fill="none" xmlns="http://www.w3.org/2000/svg">
<path d="M0 38V19H10.5L30.5 6V50.5L10.5 38H0Z" fill="#04A8BD"/>
<path d="M42.9206 20.1953C41.6477 19.1346 39.756 19.3066 38.6953 20.5794C37.6346 21.8523 37.8066 23.744 39.0794 24.8047L42.9206 20.1953ZM39.0476 33.7222C37.7896 34.8005 37.644 36.6944 38.7222 37.9524C39.8005 39.2104 41.6944 39.356 42.9524 38.2778L39.0476 33.7222ZM52.0561 9.8154C50.8496 8.67985 48.9509 8.73738 47.8154 9.94391C46.6799 11.1504 46.7374 13.0491 47.9439 14.1846L52.0561 9.8154ZM47.9482 42.8114C46.7394 43.9446 46.6782 45.8431 47.8114 47.0518C48.9446 48.2606 50.8431 48.3218 52.0518 47.1886L47.9482 42.8114ZM60.9524 0.72223C59.6944 -0.356036 57.8005 -0.210352 56.7222 1.04763C55.644 2.3056 55.7896 4.1995 57.0476 5.27777L60.9524 0.72223ZM56.7987 52.9618C55.673 54.1775 55.746 56.0756 56.9618 57.2013C58.1775 58.327 60.0756 58.254 61.2013 57.0382L56.7987 52.9618ZM39.0794 24.8047C39.2853 24.9762 39.6319 25.4173 39.9356 26.2597C40.228 27.0707 40.4137 28.0747 40.4383 29.1322C40.4914 31.4167 39.8099 33.0689 39.0476 33.7222L42.9524 38.2778C45.6901 35.9311 46.5086 32.0833 46.4367 28.9928C46.3988 27.3628 46.1157 25.7105 45.58 24.2247C45.0556 22.7702 44.2147 21.2738 42.9206 20.1953L39.0794 24.8047ZM47.9439 14.1846C51.4016 17.4389 53.2447 22.8943 53.1876 28.6578C53.1305 34.4345 51.1717 39.7893 47.9482 42.8114L52.0518 47.1886C56.8283 42.7107 59.1195 35.5655 59.1874 28.7172C59.2553 21.8557 57.0984 14.5611 52.0561 9.8154L47.9439 14.1846ZM57.0476 5.27777C63.1647 10.5209 66.1143 19.1568 65.938 28.3802C65.762 37.5941 62.4627 46.8447 56.7987 52.9618L61.2013 57.0382C68.0373 49.6553 71.738 38.9059 71.937 28.4948C72.1357 18.0932 68.8353 7.47906 60.9524 0.72223L57.0476 5.27777Z" fill="#C6DFD2"/>
</svg>
